<svg xmlns="http://www.w3.org/2000/svg" xmlns:xlink="http://www.w3.org/1999/xlink" width="1366" height="92.35" viewBox="0 0 1366 92.35"><defs><linearGradient id="a" y1="0.5" x2="1" y2="0.5" gradientUnits="objectBoundingBox"><stop offset="0" stop-color="#2968e8"/><stop offset="0.988" stop-color="#00d2ff"/><stop offset="1" stop-color="#00d2ff"/></linearGradient><linearGradient id="b" x1="1" x2="0" xlink:href="#a"/><filter id="e" x="573" y="69.35" width="220" height="23" filterUnits="userSpaceOnUse"><feOffset dy="3" input="SourceAlpha"/><feGaussianBlur stdDeviation="3" result="f"/><feFlood flood-color="#602727" flood-opacity="0.161"/><feComposite operator="in" in2="f"/><feComposite in="SourceGraphic"/></filter><linearGradient id="h" y1="0.5" x2="1" y2="0.5" gradientUnits="objectBoundingBox"><stop offset="0" stop-color="#00d2ff"/><stop offset="1" stop-color="#2968e8"/></linearGradient></defs><g transform="translate(-2387 -13131.65)"><path d="M0,0H1366V55.17H925.3L894.8,77H469.762L439.88,54.865,0,53.6Z" transform="translate(2387 13132)" opacity="0.5"/><g transform="translate(2387 13132)"><g transform="translate(0 -5)"><path d="M1,62.856H441.388L455.641,74H459.2l14.244,11.142H893.954L908.2,74h3.561l14.228-11.161L1367,62.856" transform="translate(-1 -2.745)" fill="none" stroke="#87b1dc" stroke-width="2" opacity="0.3"/><rect width="125" height="3" rx="1.5" transform="translate(299 57)" fill="url(#a)"/><rect width="125" height="3" rx="1.5" transform="translate(942 57)" fill="url(#b)"/><rect width="125" height="3" rx="1.5" transform="translate(0 57)" fill="url(#a)"/><rect width="125" height="3" rx="1.5" transform="translate(1241 57)" fill="url(#b)"/><g transform="matrix(1, 0, 0, 1, 0, 4.65)" filter="url(#e)"><rect width="202" height="5" rx="2.5" transform="translate(582 75.35)" fill="#00e4ff"/></g><g transform="translate(299.479 5)"><path d="M502,0l30.455,31.2H543.6l5.942,8.171" transform="translate(-446.576)" fill="none" stroke="#00b1ff" stroke-width="1"/><path d="M533,36l5.943,5.942h11.142l11.142,16.342" transform="translate(-454.549 -9.259)" fill="none" stroke="#00b1ff" stroke-width="1"/><path d="M1439.77-8885.865a1.861,1.861,0,0,1,1.857-1.863,1.861,1.861,0,0,1,1.855,1.863,1.859,1.859,0,0,1-1.855,1.864A1.86,1.86,0,0,1,1439.77-8885.865Zm20.04-3.727a1.861,1.861,0,0,1,1.855-1.864,1.861,1.861,0,0,1,1.855,1.864,1.859,1.859,0,0,1-1.855,1.863A1.859,1.859,0,0,1,1459.81-8889.592Zm-7.423,0a1.861,1.861,0,0,1,1.857-1.864,1.861,1.861,0,0,1,1.855,1.864,1.859,1.859,0,0,1-1.855,1.863A1.859,1.859,0,0,1,1452.387-8889.592Zm-28.2,0a1.861,1.861,0,0,1,1.855-1.864,1.861,1.861,0,0,1,1.857,1.864,1.859,1.859,0,0,1-1.857,1.863A1.859,1.859,0,0,1,1424.185-8889.592Zm21.523-.746a1.858,1.858,0,0,1,1.855-1.861,1.859,1.859,0,0,1,1.857,1.861,1.862,1.862,0,0,1-1.857,1.866A1.861,1.861,0,0,1,1445.708-8890.338Zm-31.172,0a1.859,1.859,0,0,1,1.857-1.861,1.858,1.858,0,0,1,1.855,1.861,1.861,1.861,0,0,1-1.855,1.866A1.862,1.862,0,0,1,1414.536-8890.338Zm19.3-.744a1.859,1.859,0,0,1,1.855-1.863,1.859,1.859,0,0,1,1.855,1.863,1.861,1.861,0,0,1-1.855,1.864A1.861,1.861,0,0,1,1433.834-8891.082Zm-31.914-1.491a1.86,1.86,0,0,1,1.855-1.863,1.858,1.858,0,0,1,1.855,1.863,1.857,1.857,0,0,1-1.855,1.863A1.859,1.859,0,0,1,1401.921-8892.573Zm-10.391-.744a1.859,1.859,0,0,1,1.855-1.863,1.857,1.857,0,0,1,1.855,1.863,1.857,1.857,0,0,1-1.855,1.861A1.858,1.858,0,0,1,1391.53-8893.317Zm-10.391-.748a1.861,1.861,0,0,1,1.855-1.863,1.859,1.859,0,0,1,1.855,1.863,1.86,1.86,0,0,1-1.855,1.866A1.861,1.861,0,0,1,1381.139-8894.065Zm58.631-.743a1.86,1.86,0,0,1,1.857-1.863,1.86,1.86,0,0,1,1.855,1.863,1.86,1.86,0,0,1-1.855,1.863A1.86,1.86,0,0,1,1439.77-8894.809Zm-20.779-.746a1.859,1.859,0,0,1,1.855-1.863,1.859,1.859,0,0,1,1.855,1.863,1.859,1.859,0,0,1-1.855,1.863A1.859,1.859,0,0,1,1418.991-8895.555Zm9.647-.746a1.861,1.861,0,0,1,1.857-1.863,1.861,1.861,0,0,1,1.855,1.863,1.861,1.861,0,0,1-1.855,1.864A1.861,1.861,0,0,1,1428.638-8896.3Zm-19.3,0a1.859,1.859,0,0,1,1.855-1.863,1.859,1.859,0,0,1,1.857,1.863,1.861,1.861,0,0,1-1.857,1.864A1.861,1.861,0,0,1,1409.341-8896.3Zm-11.874-1.489a1.857,1.857,0,0,1,1.855-1.863,1.859,1.859,0,0,1,1.855,1.863,1.858,1.858,0,0,1-1.855,1.861A1.857,1.857,0,0,1,1397.468-8897.79Zm-10.391-.748a1.857,1.857,0,0,1,1.855-1.861,1.858,1.858,0,0,1,1.855,1.861,1.861,1.861,0,0,1-1.855,1.866A1.86,1.86,0,0,1,1387.077-8898.538Zm-10.391-.744a1.859,1.859,0,0,1,1.855-1.863,1.859,1.859,0,0,1,1.855,1.863,1.861,1.861,0,0,1-1.855,1.864A1.861,1.861,0,0,1,1376.686-8899.282Zm-8.164,0a1.859,1.859,0,0,1,1.855-1.863,1.859,1.859,0,0,1,1.857,1.863,1.861,1.861,0,0,1-1.857,1.864A1.861,1.861,0,0,1,1368.522-8899.282Zm66.054-.745a1.861,1.861,0,0,1,1.855-1.864,1.861,1.861,0,0,1,1.857,1.864,1.859,1.859,0,0,1-1.857,1.863A1.859,1.859,0,0,1,1434.576-8900.027Zm-20.038-.746a1.858,1.858,0,0,1,1.855-1.863,1.86,1.86,0,0,1,1.855,1.863,1.859,1.859,0,0,1-1.855,1.863A1.857,1.857,0,0,1,1414.538-8900.773Zm-9.649-.746a1.858,1.858,0,0,1,1.855-1.861,1.859,1.859,0,0,1,1.857,1.861,1.862,1.862,0,0,1-1.857,1.866A1.861,1.861,0,0,1,1404.888-8901.52Zm18.555-.743a1.859,1.859,0,0,1,1.855-1.864,1.86,1.86,0,0,1,1.857,1.864,1.861,1.861,0,0,1-1.857,1.863A1.86,1.86,0,0,1,1423.444-8902.263Zm-30.431-.746a1.86,1.86,0,0,1,1.857-1.863,1.86,1.86,0,0,1,1.855,1.863,1.86,1.86,0,0,1-1.855,1.863A1.86,1.86,0,0,1,1393.013-8903.009Zm-10.391-.746a1.859,1.859,0,0,1,1.857-1.863,1.859,1.859,0,0,1,1.855,1.863,1.859,1.859,0,0,1-1.855,1.863A1.859,1.859,0,0,1,1382.622-8903.755Zm46.76-1.491a1.859,1.859,0,0,1,1.855-1.864,1.861,1.861,0,0,1,1.855,1.864,1.86,1.86,0,0,1-1.855,1.865A1.859,1.859,0,0,1,1429.381-8905.246Zm-19.3-.744a1.859,1.859,0,0,1,1.857-1.863,1.859,1.859,0,0,1,1.855,1.863,1.858,1.858,0,0,1-1.855,1.861A1.859,1.859,0,0,1,1410.083-8905.99Zm-9.647-.746a1.859,1.859,0,0,1,1.855-1.863,1.857,1.857,0,0,1,1.855,1.863,1.859,1.859,0,0,1-1.855,1.864A1.861,1.861,0,0,1,1400.436-8906.736Zm18.555-.746a1.86,1.86,0,0,1,1.855-1.863,1.861,1.861,0,0,1,1.855,1.863,1.861,1.861,0,0,1-1.855,1.864A1.861,1.861,0,0,1,1418.991-8907.482Zm-30.431-.743a1.862,1.862,0,0,1,1.857-1.866,1.861,1.861,0,0,1,1.855,1.866,1.858,1.858,0,0,1-1.855,1.861A1.859,1.859,0,0,1,1388.56-8908.226Zm36.367-2.237a1.86,1.86,0,0,1,1.857-1.864,1.859,1.859,0,0,1,1.855,1.864,1.86,1.86,0,0,1-1.855,1.863A1.861,1.861,0,0,1,1424.926-8910.463Zm-19.3-.746a1.86,1.86,0,0,1,1.857-1.863,1.86,1.86,0,0,1,1.855,1.863,1.859,1.859,0,0,1-1.855,1.863A1.859,1.859,0,0,1,1405.63-8911.209Zm-9.647-.746a1.86,1.86,0,0,1,1.855-1.863,1.858,1.858,0,0,1,1.855,1.863,1.857,1.857,0,0,1-1.855,1.863A1.859,1.859,0,0,1,1395.983-8911.955Zm18.555-.743a1.86,1.86,0,0,1,1.855-1.866,1.861,1.861,0,0,1,1.855,1.866,1.859,1.859,0,0,1-1.855,1.861A1.857,1.857,0,0,1,1414.538-8912.7Zm5.936-2.984a1.86,1.86,0,0,1,1.855-1.863,1.861,1.861,0,0,1,1.857,1.863,1.861,1.861,0,0,1-1.857,1.866A1.86,1.86,0,0,1,1420.474-8915.683Zm-19.3-.743a1.862,1.862,0,0,1,1.857-1.866,1.861,1.861,0,0,1,1.855,1.866,1.858,1.858,0,0,1-1.855,1.861A1.859,1.859,0,0,1,1401.177-8916.426Zm-9.647-.746a1.857,1.857,0,0,1,1.855-1.863,1.859,1.859,0,0,1,1.855,1.863,1.858,1.858,0,0,1-1.855,1.861A1.857,1.857,0,0,1,1391.53-8917.172Zm18.553-.746a1.861,1.861,0,0,1,1.857-1.863,1.861,1.861,0,0,1,1.855,1.863,1.861,1.861,0,0,1-1.855,1.864A1.861,1.861,0,0,1,1410.083-8917.918Zm5.938-2.98a1.861,1.861,0,0,1,1.857-1.866,1.86,1.86,0,0,1,1.855,1.866,1.859,1.859,0,0,1-1.855,1.861A1.859,1.859,0,0,1,1416.021-8920.9Zm-10.391-2.238a1.859,1.859,0,0,1,1.857-1.863,1.859,1.859,0,0,1,1.855,1.863,1.861,1.861,0,0,1-1.855,1.864A1.861,1.861,0,0,1,1405.63-8923.137Z" transform="translate(-1368.521 8928)" fill="url(#a)"/></g><g transform="translate(960.522 5)"><path d="M549.54,0,519.085,31.2H507.942L502,39.369" transform="translate(-498.286)" fill="none" stroke="#00b1ff" stroke-width="1"/><path d="M561.227,36l-5.943,5.942H544.142L533,58.284" transform="translate(-533 -9.259)" fill="none" stroke="#00b1ff" stroke-width="1"/><path d="M727.517-8885.865a1.86,1.86,0,0,1,1.855-1.863,1.861,1.861,0,0,1,1.857,1.863,1.86,1.86,0,0,1-1.857,1.864A1.859,1.859,0,0,1,727.517-8885.865Zm15.585-3.727a1.861,1.861,0,0,1,1.857-1.864,1.861,1.861,0,0,1,1.855,1.864,1.859,1.859,0,0,1-1.855,1.863A1.859,1.859,0,0,1,743.1-8889.592Zm-28.2,0a1.861,1.861,0,0,1,1.855-1.864,1.861,1.861,0,0,1,1.857,1.864,1.859,1.859,0,0,1-1.857,1.863A1.859,1.859,0,0,1,714.9-8889.592Zm-7.423,0a1.861,1.861,0,0,1,1.857-1.864,1.861,1.861,0,0,1,1.855,1.864,1.859,1.859,0,0,1-1.855,1.863A1.859,1.859,0,0,1,707.477-8889.592Zm45.275-.746a1.858,1.858,0,0,1,1.855-1.861,1.857,1.857,0,0,1,1.855,1.861,1.86,1.86,0,0,1-1.855,1.866A1.861,1.861,0,0,1,752.752-8890.338Zm-31.172,0a1.858,1.858,0,0,1,1.855-1.861,1.859,1.859,0,0,1,1.857,1.861,1.862,1.862,0,0,1-1.857,1.866A1.861,1.861,0,0,1,721.579-8890.338Zm11.876-.744a1.859,1.859,0,0,1,1.855-1.863,1.859,1.859,0,0,1,1.855,1.863,1.861,1.861,0,0,1-1.855,1.864A1.861,1.861,0,0,1,733.455-8891.082Zm31.914-1.491a1.86,1.86,0,0,1,1.855-1.863,1.858,1.858,0,0,1,1.855,1.863,1.857,1.857,0,0,1-1.855,1.863A1.859,1.859,0,0,1,765.369-8892.573Zm10.391-.744a1.859,1.859,0,0,1,1.855-1.863,1.859,1.859,0,0,1,1.855,1.863,1.858,1.858,0,0,1-1.855,1.861A1.858,1.858,0,0,1,775.76-8893.317Zm10.391-.748a1.859,1.859,0,0,1,1.855-1.863,1.86,1.86,0,0,1,1.855,1.863,1.861,1.861,0,0,1-1.855,1.866A1.86,1.86,0,0,1,786.151-8894.065Zm-58.633-.743a1.86,1.86,0,0,1,1.855-1.863,1.86,1.86,0,0,1,1.857,1.863,1.86,1.86,0,0,1-1.857,1.863A1.86,1.86,0,0,1,727.517-8894.809Zm20.782-.746a1.857,1.857,0,0,1,1.855-1.863,1.859,1.859,0,0,1,1.857,1.863,1.859,1.859,0,0,1-1.857,1.863A1.857,1.857,0,0,1,748.3-8895.555Zm9.647-.746a1.859,1.859,0,0,1,1.857-1.863,1.859,1.859,0,0,1,1.855,1.863,1.861,1.861,0,0,1-1.855,1.864A1.861,1.861,0,0,1,757.946-8896.3Zm-19.3,0a1.859,1.859,0,0,1,1.855-1.863,1.859,1.859,0,0,1,1.857,1.863,1.861,1.861,0,0,1-1.857,1.864A1.861,1.861,0,0,1,738.65-8896.3Zm31.172-1.489a1.859,1.859,0,0,1,1.855-1.863,1.859,1.859,0,0,1,1.857,1.863,1.859,1.859,0,0,1-1.857,1.861A1.858,1.858,0,0,1,769.822-8897.79Zm10.391-.748a1.858,1.858,0,0,1,1.855-1.861,1.857,1.857,0,0,1,1.855,1.861,1.86,1.86,0,0,1-1.855,1.866A1.861,1.861,0,0,1,780.213-8898.538Zm18.553-.744a1.859,1.859,0,0,1,1.857-1.863,1.859,1.859,0,0,1,1.855,1.863,1.861,1.861,0,0,1-1.855,1.864A1.861,1.861,0,0,1,798.766-8899.282Zm-8.162,0a1.859,1.859,0,0,1,1.855-1.863,1.859,1.859,0,0,1,1.855,1.863,1.861,1.861,0,0,1-1.855,1.864A1.861,1.861,0,0,1,790.6-8899.282Zm-57.892-.745a1.861,1.861,0,0,1,1.857-1.864,1.861,1.861,0,0,1,1.855,1.864,1.859,1.859,0,0,1-1.855,1.863A1.859,1.859,0,0,1,732.712-8900.027Zm20.04-.746a1.86,1.86,0,0,1,1.855-1.863,1.86,1.86,0,0,1,1.857,1.863,1.859,1.859,0,0,1-1.857,1.863A1.859,1.859,0,0,1,752.752-8900.773Zm9.647-.746a1.859,1.859,0,0,1,1.857-1.861,1.858,1.858,0,0,1,1.855,1.861,1.861,1.861,0,0,1-1.855,1.866A1.862,1.862,0,0,1,762.4-8901.52Zm-18.553-.743a1.858,1.858,0,0,1,1.855-1.864,1.859,1.859,0,0,1,1.855,1.864,1.86,1.86,0,0,1-1.855,1.863A1.859,1.859,0,0,1,743.846-8902.263Zm30.429-.746a1.86,1.86,0,0,1,1.855-1.863,1.86,1.86,0,0,1,1.857,1.863,1.86,1.86,0,0,1-1.857,1.863A1.86,1.86,0,0,1,774.275-8903.009Zm10.391-.746a1.859,1.859,0,0,1,1.855-1.863,1.859,1.859,0,0,1,1.857,1.863,1.859,1.859,0,0,1-1.857,1.863A1.859,1.859,0,0,1,784.666-8903.755Zm-46.758-1.491a1.861,1.861,0,0,1,1.855-1.864,1.861,1.861,0,0,1,1.857,1.864,1.861,1.861,0,0,1-1.857,1.865A1.86,1.86,0,0,1,737.908-8905.246Zm19.3-.744a1.859,1.859,0,0,1,1.855-1.863,1.859,1.859,0,0,1,1.857,1.863,1.859,1.859,0,0,1-1.857,1.861A1.858,1.858,0,0,1,757.2-8905.99Zm9.647-.746a1.859,1.859,0,0,1,1.857-1.863,1.859,1.859,0,0,1,1.855,1.863,1.861,1.861,0,0,1-1.855,1.864A1.861,1.861,0,0,1,766.852-8906.736Zm-18.553-.746a1.862,1.862,0,0,1,1.855-1.865,1.862,1.862,0,0,1,1.855,1.865,1.861,1.861,0,0,1-1.855,1.864A1.861,1.861,0,0,1,748.3-8907.482Zm30.429-.743a1.861,1.861,0,0,1,1.855-1.866,1.862,1.862,0,0,1,1.857,1.866,1.859,1.859,0,0,1-1.857,1.861A1.858,1.858,0,0,1,778.728-8908.226Zm-36.367-2.237a1.859,1.859,0,0,1,1.855-1.864,1.86,1.86,0,0,1,1.857,1.864,1.861,1.861,0,0,1-1.857,1.863A1.86,1.86,0,0,1,742.361-8910.463Zm19.3-.746a1.86,1.86,0,0,1,1.855-1.863,1.86,1.86,0,0,1,1.857,1.863,1.859,1.859,0,0,1-1.857,1.863A1.859,1.859,0,0,1,761.658-8911.209Zm9.647-.746a1.86,1.86,0,0,1,1.857-1.863,1.858,1.858,0,0,1,1.855,1.863,1.857,1.857,0,0,1-1.855,1.863A1.859,1.859,0,0,1,771.3-8911.955Zm-18.553-.743a1.861,1.861,0,0,1,1.855-1.866,1.86,1.86,0,0,1,1.855,1.866,1.857,1.857,0,0,1-1.855,1.861A1.859,1.859,0,0,1,752.752-8912.7Zm-5.938-2.984a1.86,1.86,0,0,1,1.855-1.863,1.861,1.861,0,0,1,1.857,1.863,1.861,1.861,0,0,1-1.857,1.866A1.86,1.86,0,0,1,746.814-8915.683Zm19.3-.743a1.862,1.862,0,0,1,1.857-1.866,1.861,1.861,0,0,1,1.855,1.866,1.858,1.858,0,0,1-1.855,1.861A1.859,1.859,0,0,1,766.111-8916.426Zm9.649-.746a1.857,1.857,0,0,1,1.855-1.863,1.859,1.859,0,0,1,1.855,1.863,1.858,1.858,0,0,1-1.855,1.861A1.857,1.857,0,0,1,775.76-8917.172Zm-18.555-.746a1.86,1.86,0,0,1,1.855-1.863,1.861,1.861,0,0,1,1.857,1.863,1.861,1.861,0,0,1-1.857,1.864A1.861,1.861,0,0,1,757.2-8917.918Zm-5.938-2.98a1.861,1.861,0,0,1,1.857-1.866,1.86,1.86,0,0,1,1.855,1.866,1.859,1.859,0,0,1-1.855,1.861A1.859,1.859,0,0,1,751.267-8920.9Zm10.391-2.238a1.859,1.859,0,0,1,1.855-1.863,1.859,1.859,0,0,1,1.857,1.863,1.861,1.861,0,0,1-1.857,1.864A1.861,1.861,0,0,1,761.658-8923.137Z" transform="translate(-695.8 8928)" fill="url(#h)"/></g></g></g></g></svg>