<svg xmlns="http://www.w3.org/2000/svg" width="40" height="40" viewBox="0 0 40 40"><circle cx="20" cy="20" r="20" fill="#fff3e0" opacity="0.1"/><circle cx="17" cy="17" r="17" transform="translate(3 3)" fill="#ffab2b"/><g transform="translate(13.476 13.367)"><path d="M11.488,14H1.512A1.476,1.476,0,0,1,0,12.567V1.433A1.476,1.476,0,0,1,1.512,0h9.976A1.476,1.476,0,0,1,13,1.433V12.567A1.476,1.476,0,0,1,11.488,14ZM9.75,6.93a.5.5,0,0,0-.517.49V11.76a.5.5,0,0,0,.517.49h.886a.5.5,0,0,0,.517-.49V7.42a.5.5,0,0,0-.517-.49ZM6.131,10.5a.5.5,0,0,0-.517.49v.77a.5.5,0,0,0,.517.49h.813a.5.5,0,0,0,.517-.49v-.77a.5.5,0,0,0-.517-.49Zm-3.694,0a.5.5,0,0,0-.517.49v.77a.5.5,0,0,0,.517.49H3.25a.5.5,0,0,0,.518-.49v-.77a.5.5,0,0,0-.518-.49ZM6.131,7a.5.5,0,0,0-.517.49v.77a.5.5,0,0,0,.517.49h.813a.5.5,0,0,0,.517-.49V7.49A.5.5,0,0,0,6.944,7ZM2.437,7a.5.5,0,0,0-.517.49v.77a.5.5,0,0,0,.517.49H3.25a.5.5,0,0,0,.518-.49V7.49A.5.5,0,0,0,3.25,7Zm.127-5.32a.628.628,0,0,0-.644.609V4.64a.628.628,0,0,0,.644.609H10.51a.628.628,0,0,0,.643-.609V2.29a.628.628,0,0,0-.643-.609Z" fill="#fff"/></g></svg>