<svg xmlns="http://www.w3.org/2000/svg" width="40" height="40" viewBox="0 0 40 40"><circle cx="20" cy="20" r="20" fill="#fff3e0" opacity="0.1"/><circle cx="17" cy="17" r="17" transform="translate(3 3)" fill="#28da0d"/><path d="M100.321,96.357l-.283-.566a8.688,8.688,0,0,0,2.548-5.8,8.785,8.785,0,0,0-2.265-6.087l.283-.566a9.073,9.073,0,0,1,2.548,6.654C103.152,93.523,100.321,96.357,100.321,96.357Zm-2.265-2.548a8.131,8.131,0,0,0,1.416-3.822A6.809,6.809,0,0,0,98.056,85.6l.283-.566a7.608,7.608,0,0,1,1.7,4.955,7.851,7.851,0,0,1-1.7,4.389Zm-2.265-1.7a4.328,4.328,0,0,0,.849-2.265c0-1.83-.849-2.265-.849-2.265l.283-.566a3.442,3.442,0,0,1,1.133,2.831,4.985,4.985,0,0,1-1.133,2.831Zm-5.379,8.211,1.982-7.078h1.982l1.982,7.078Zm2.831-9.343a1.133,1.133,0,1,1,1.133-1.133A1.133,1.133,0,0,1,93.243,90.978Zm-2.831,1.7a4.985,4.985,0,0,1-1.133-2.831,3.442,3.442,0,0,1,1.133-2.831l.283.566s-.849.435-.849,2.265a4.328,4.328,0,0,0,.849,2.265Zm-2.265,1.7a7.851,7.851,0,0,1-1.7-4.389,7.608,7.608,0,0,1,1.7-4.955l.283.566a6.809,6.809,0,0,0-1.416,4.389,8.131,8.131,0,0,0,1.416,3.822Zm-1.7,1.416-.283.566s-2.831-2.834-2.831-6.37a9.073,9.073,0,0,1,2.548-6.654l.283.566A8.785,8.785,0,0,0,83.9,89.987,8.688,8.688,0,0,0,86.447,95.791Z" transform="translate(-73.333 -72.047)" fill="#fff"/></svg>