<svg xmlns="http://www.w3.org/2000/svg" width="40" height="40" viewBox="0 0 40 40"><circle cx="20" cy="20" r="20" fill="#fff3e0" opacity="0.1"/><circle cx="17" cy="17" r="17" transform="translate(3 3)" fill="#ea8e63"/><path d="M16.383,16.295H1.333a.881.881,0,0,1-.875-.886V1.233A.886.886,0,0,1,1.343.347a.887.887,0,0,1,.865.886v13.29H16.383a.886.886,0,0,1,.017,1.772h-.017Zm-2.042-2.658H13.214a.881.881,0,0,1-.875-.886v-6.2a.881.881,0,0,1,.875-.885h1.127a.88.88,0,0,1,.875.886v6.2a.88.88,0,0,1-.875.886Zm-4.335,0H8.877A.881.881,0,0,1,8,12.751V3a.881.881,0,0,1,.875-.886H10A.88.88,0,0,1,10.88,3v9.746a.88.88,0,0,1-.874.886Zm-4.336,0H4.542a.881.881,0,0,1-.875-.886V10.979a.881.881,0,0,1,.875-.886H5.669a.88.88,0,0,1,.875.886v1.772a.88.88,0,0,1-.875.886Z" transform="translate(10.744 11.367)" fill="#fff"/></svg>