<svg xmlns="http://www.w3.org/2000/svg" width="40" height="40" viewBox="0 0 40 40"><circle cx="20" cy="20" r="20" fill="#fff3e0" opacity="0.1"/><circle cx="17" cy="17" r="17" transform="translate(3 3)" fill="#68aae2"/><path d="M1.185,1.651a.5.5,0,0,1,.537-.513H3.981V0h-2.8A1.169,1.169,0,0,0,0,1.138V3.3H1.185Zm-.032,12.5V12.5H0v2.165A1.157,1.157,0,0,0,1.153,15.8H3.981V14.662H1.675a.487.487,0,0,1-.521-.513ZM14.022,12.6A4.583,4.583,0,0,0,9.614,8.066a3.416,3.416,0,0,0,1.841-2.939A3.322,3.322,0,0,0,8.145,1.7a3.4,3.4,0,0,0-3.428,3.31A3.134,3.134,0,0,0,6.557,7.947a4.59,4.59,0,0,0-4.29,4.661.843.843,0,0,0,.861.861H13.177a.847.847,0,0,0,.845-.869ZM11.2,11.3l-1.6,1.6-.569-.569.648-.648h-4.6v-.8H9.693l-.648-.648.569-.569,1.6,1.6-.016.016.008.024Zm3.531,2.844a.473.473,0,0,1-.482.513H13.185V15.8h1.556a1.109,1.109,0,0,0,1.066-1.138V12.5H14.741v1.651ZM14.733,0H13.177V1.138h1.066a.475.475,0,0,1,.49.513V3.3H15.8V1.138A1.109,1.109,0,0,0,14.733,0Z" transform="translate(11.956 11.938)" fill="#fff"/></svg>