<svg xmlns="http://www.w3.org/2000/svg" xmlns:xlink="http://www.w3.org/1999/xlink" width="29.333" height="25.142" viewBox="0 0 29.333 25.142"><defs><linearGradient id="a" y1="0.5" x2="1" y2="0.5" gradientUnits="objectBoundingBox"><stop offset="0" stop-color="#00d2ff"/><stop offset="1" stop-color="#2968e8"/></linearGradient></defs><g transform="translate(-1336.963 -17)"><path d="M27.621,62.72H4.154a2.9,2.9,0,0,0-2.933,2.862V85a2.9,2.9,0,0,0,2.933,2.862H27.621A2.9,2.9,0,0,0,30.554,85V65.582A2.9,2.9,0,0,0,27.621,62.72Z" transform="translate(1335.742 -45.72)" fill="#fff"/><path d="M27.621,62.72H4.154a2.9,2.9,0,0,0-2.933,2.862V85a2.9,2.9,0,0,0,2.933,2.862H27.621A2.9,2.9,0,0,0,30.554,85V65.582A2.9,2.9,0,0,0,27.621,62.72Zm-12.79,4.645a1.014,1.014,0,0,1,2.027,0v6.853a1.014,1.014,0,0,1-2.027,0ZM22.5,80.479a7.519,7.519,0,0,1-3.31,2.995,7.985,7.985,0,0,1-3.332.725h0a7.932,7.932,0,0,1-1.482-.136,7.709,7.709,0,0,1-3.991-2.146,7.2,7.2,0,0,1-2.033-3.98,7.674,7.674,0,0,1,.042-2.589,7.213,7.213,0,0,1,.853-2.259,7.542,7.542,0,0,1,3.554-3.13l.009,0a1.028,1.028,0,0,1,.48-.119,1.015,1.015,0,0,1,.112.006.983.983,0,0,1,.159.029,1.024,1.024,0,0,1,.608.456.878.878,0,0,1,.067.137.95.95,0,0,1,.041.609.865.865,0,0,1-.5.626l-.011,0a1.025,1.025,0,0,1-.136.059,6.158,6.158,0,0,0-.579.293c-.173.1-.325.2-.464.293-.017.012-.061.042-.1.069s-.069.035-.069.047h0c0,.031-.075.062-.114.094a6.35,6.35,0,0,0-.746.731c-.036.042-.072.085-.107.128l0,.006c-.034.044-.081.107-.126.17-.106.15-.2.287-.275.42-.1.171-.186.327-.259.479-.009.018-.028.062-.046.1s-.023.052-.036.076h0c-.019.047-.038.094-.056.141a6.09,6.09,0,0,0-.288,1.025c-.01.057-.021.113-.03.17l0,.022c-.007.058-.015.131-.022.206-.016.192-.023.365-.023.53,0,.2.008.372.023.538q.007.079.016.158l0,.021c.007.048.017.115.022.141a6.093,6.093,0,0,0,.254.966c.036.1.068.184.1.259l.02.047.011.024c.072.156.142.293.213.42a6.319,6.319,0,0,0,.478.734l.053.064.086.1c.062.072.111.125.157.175.118.125.227.234.333.332.137.125.264.234.389.331l.018.014.011.008.032.023c.078.056.138.1.195.134a6.427,6.427,0,0,0,.867.482l.137.061c.079.031.139.054.2.074.167.059.319.107.464.146.188.051.357.09.519.119.094.018.171.03.24.04h.009l.076.009c.232.023.463.035.685.035.126,0,.252,0,.374-.011s.208-.015.293-.024l.086-.01c.177-.027.334-.056.481-.09a6.489,6.489,0,0,0,.942-.291l.022-.009.11-.049c.088-.041.154-.073.216-.1.155-.079.292-.155.417-.23.159-.1.3-.189.429-.282l.05-.036.012-.009c.05-.04.117-.093.182-.149a6.356,6.356,0,0,0,.7-.688l.081-.1c.021-.026.039-.048.057-.068h0c.027-.035.054-.071.08-.107.1-.139.186-.267.261-.391.1-.158.178-.3.249-.445.042-.083.074-.15.1-.213l.015-.035.015-.035a6.1,6.1,0,0,0,.3-.948c.024-.109.042-.2.055-.276,0-.024.013-.083.019-.13l.008-.059c.015-.136.025-.26.03-.379a6.24,6.24,0,0,0-.036-1.013c0-.031-.01-.066-.013-.083-.007-.043-.015-.086-.023-.128-.013-.07-.032-.162-.054-.253-.043-.183-.088-.344-.138-.5-.036-.11-.068-.2-.1-.281-.007-.018-.024-.06-.041-.1s-.024-.059-.033-.084h0c-.061-.134-.12-.252-.18-.363a6.292,6.292,0,0,0-.529-.819l-.054-.067-.082-.1c-.067-.077-.119-.134-.169-.187-.127-.134-.245-.249-.361-.353-.086-.077-.157-.138-.224-.193l-.087-.068c-.024-.018-.047-.036-.067-.054h0c-.12-.087-.231-.162-.337-.228a6.712,6.712,0,0,0-.8-.428,1.031,1.031,0,0,1-.136-.06l-.01,0a.866.866,0,0,1-.5-.626.951.951,0,0,1,.04-.609.889.889,0,0,1,.067-.137,1.025,1.025,0,0,1,.608-.456,1.08,1.08,0,0,1,.271-.036,1.028,1.028,0,0,1,.48.119l.009,0a7.457,7.457,0,0,1,4.491,6A7.223,7.223,0,0,1,22.5,80.479Z" transform="translate(1335.742 -45.72)" fill="url(#a)"/></g></svg>